:SAMPLES-PER-SECOND 30
:FULLY-SPECIFIED
:DEGREES
219
root  -9.52838 34.7818 -17.2745 -171.259 2.14867 -178.611
RightUpLeg  -5.58563 -18.0982 5.67891
RightLeg  0.278214 4.9104 -0.291397
RightFoot  4.71368 -0.00589097 0.527187
RightToes  -22.8445 -0.0891533 -0.19929
Spine  -3.23575 1.97952 -1.14087
Spine1  -6.51397 3.98863 -1.56526
HEad  -57.6704 -0.646045 9.18658
LeftShoulder1  -1.94126e-019 -3.10601e-018 -2.51263e-017
LeftArm  -10.4334 24.4784 -76.5838
LeftForeArm  36.0868 -18.0779 -3.16037
LeftHand  -0.313771 -0.910753 5.90614
RightShoulder  -4.96962e-017 0 -2.36833e-017
RightArm  -61.116 11.9047 13.4497
RightForeArm  168.327 44.2121 169.962
RightHand  -0.391259 -1.93263 -12.9558
LeftUpLeg  -15.1237 2.04428 -0.386771
LeftLeg  21.9185 10.6755 3.4897
LeftFoot  -2.88195 -0.0145137 -0.415432
LeftToes  -8.7021 1.48347e-006 1.01831e-007
220
root  -9.43842 34.7888 -17.3159 -171.005 1.20039 -178.948
RightUpLeg  -5.2565 -18.1489 5.5305
RightLeg  -0.651677 4.22286 -0.319795
RightFoot  4.8692 -0.00271711 0.480611
RightToes  -23.3735 -0.0890026 -0.203377
Spine  -3.48078 1.90171 -1.29831
Spine1  -7.02109 3.84202 -1.84197
HEad  -57.3531 -0.909881 9.09989
LeftShoulder1  -1.94126e-019 -3.10601e-018 -2.51263e-017
LeftArm  -9.27229 24.4977 -76.8143
LeftForeArm  36.0825 -16.921 -2.93266
LeftHand  -0.303336 -1.0058 5.63627
RightShoulder  -4.96962e-017 0 -2.36833e-017
RightArm  -67.9322 12.1509 9.05691
RightForeArm  167.838 44.6809 169.782
RightHand  -0.408708 -1.74878 -12.8789
LeftUpLeg  -13.2053 -2.83513 -1.08152
LeftLeg  17.2127 16.6316 3.9378
LeftFoot  -2.88161 -0.0226226 -0.737857
LeftToes  -0.725259 1.48347e-006 1.01831e-007
221
root  -9.35283 34.8055 -17.3637 -170.934 0.199966 -179.231
RightUpLeg  -5.20883 -18.5093 5.44396
RightLeg  -0.64711 3.61257 -0.273429
RightFoot  4.61646 0.00188146 0.413682
RightToes  -22.9488 -0.0888996 -0.200098
Spine  -3.60287 1.69885 -1.42786
Spine1  -7.26405 3.41679 -2.08081
HEad  -57.784 -1.17893 9.62383
LeftShoulder1  -1.94126e-019 -3.10601e-018 -2.51263e-017
LeftArm  -9.35818 24.1685 -77.0965
LeftForeArm  36.6809 -15.2912 -2.64632
LeftHand  -0.302858 -1.23232 5.45392
RightShoulder  -4.96962e-017 0 -2.36833e-017
RightArm  -70.2934 11.02 6.11264
RightForeArm  167.923 45.1345 169.636
RightHand  -0.412683 -1.41195 -11.9381
LeftUpLeg  -11.2597 -7.51423 -0.984716
LeftLeg  13.4686 19.955 3.36722
LeftFoot  -1.6511 -0.00901693 -0.464193
LeftToes  -3.86547 1.48347e-006 1.01831e-007
222
root  -9.27447 34.8573 -17.4104 -170.879 -0.448746 -179.91
RightUpLeg  -5.63826 -19.1899 4.98152
RightLeg  0.27125 3.55345 -0.211505
RightFoot  4.00599 0.00475482 0.372811
RightToes  -21.9359 -0.0888469 -0.192202
Spine  -3.66313 1.51745 -1.8092
Spine1  -7.38561 3.00791 -2.8526
HEad  -58.5543 -1.49642 10.8641
LeftShoulder1  -1.94126e-019 -3.10601e-018 -2.51263e-017
LeftArm  -10.0966 23.9629 -76.8758
LeftForeArm  36.6545 -14.5152 -2.51589
LeftHand  -0.308131 -0.930501 5.78536
RightShoulder  -4.96962e-017 0 -2.36833e-017
RightArm  -70.9642 9.45996 4.89848
RightForeArm  168.878 44.6837 169.849
RightHand  -0.423264 -0.90068 -10.9023
LeftUpLeg  -9.49849 -6.1325 -1.34431
LeftLeg  9.47709 17.8499 1.78062
LeftFoot  1.02818 -0.00284818 0.479016
LeftToes  -9.69503 1.48347e-006 1.01831e-007
223
root  -9.19324 34.8885 -17.4179 -170.624 -0.966812 179.495
RightUpLeg  -5.60249 -18.8688 4.60888
RightLeg  -0.22483 2.74348 -0.187354
RightFoot  4.04874 0.00835037 0.323327
RightToes  -21.3041 -0.0888474 -0.187224
Spine  -3.74914 1.25944 -2.17423
Spine1  -7.55168 2.45735 -3.55675
HEad  -59.4825 -1.62999 11.6741
LeftShoulder1  -1.94126e-019 -3.10601e-018 -2.51263e-017
LeftArm  -10.3478 24.2948 -76.2263
LeftForeArm  35.9787 -15.2696 -2.64314
LeftHand  -0.328641 -0.93447 6.1601
RightShoulder  -4.96962e-017 0 -2.36833e-017
RightArm  -71.2892 8.40149 4.61922
RightForeArm  169.384 44.1648 170.052
RightHand  -0.42234 -0.788964 -10.6254
LeftUpLeg  -8.41399 -2.61721 -1.68054
LeftLeg  6.43572 13.5639 0.645459
LeftFoot  2.92457 -0.0176791 0.854111
LeftToes  -13.181 1.48347e-006 1.01831e-007
224
root  -9.14663 34.8986 -17.3968 -170.42 -1.37222 179.243
RightUpLeg  -5.77374 -19.4006 4.54366
RightLeg  -0.335308 2.9521 -0.207323
RightFoot  3.99463 0.00782451 0.333723
RightToes  -21.3762 -0.0892625 -0.185056
Spine  -3.79175 1.07736 -2.2866
Spine1  -7.62937 2.07999 -3.76509
HEad  -60.4594 -1.83446 11.5585
LeftShoulder1  -1.94126e-019 -3.10601e-018 -2.51263e-017
LeftArm  -9.67924 24.5434 -75.8928
LeftForeArm  35.4032 -15.8277 -2.71917
LeftHand  -0.341672 -0.974525 6.36334
RightShoulder  -4.96962e-017 0 -2.36833e-017
RightArm  -71.8962 7.75655 4.10779
RightForeArm  169.083 44.1241 170.046
RightHand  -0.409267 -0.911095 -10.5629
LeftUpLeg  -7.42041 -1.88521 -1.87947
LeftLeg  3.80572 12.5256 0.0263485
LeftFoot  4.08793 -0.0318824 1.05488
LeftToes  -13.0351 1.48347e-006 1.01831e-007
225
root  -9.12839 34.8876 -17.3653 -170.452 -1.41318 179.264
RightUpLeg  -5.7567 -19.3466 4.59169
RightLeg  -0.37847 2.89497 -0.205524
RightFoot  3.89688 0.00882341 0.323237
RightToes  -21.3886 -0.0893355 -0.183443
Spine  -3.78095 1.07871 -2.13214
Spine1  -7.60644 2.07709 -3.55958
HEad  -61.1443 -1.98724 10.7817
LeftShoulder1  -1.94126e-019 -3.10601e-018 -2.51263e-017
LeftArm  -9.10817 24.4171 -76.0881
LeftForeArm  35.4754 -15.4076 -2.63321
LeftHand  -0.363828 -1.07985 6.66742
RightShoulder  -4.96962e-017 0 -2.36833e-017
RightArm  -72.3141 7.47975 3.22378
RightForeArm  169.042 44.3898 169.958
RightHand  -0.413437 -0.895596 -10.6361
LeftUpLeg  -6.65495 -2.69035 -1.89738
LeftLeg  2.18787 13.5101 -0.349387
LeftFoot  4.57338 -0.0444971 1.24343
LeftToes  -11.856 1.48347e-006 1.01831e-007
226
root  -9.10655 34.8847 -17.3279 -170.581 -1.27408 179.318
RightUpLeg  -5.74658 -18.9274 4.63255
RightLeg  -0.239532 2.64914 -0.181611
RightFoot  3.7977 0.0105999 0.302451
RightToes  -21.1392 -0.0894511 -0.182331
Spine  -3.73188 1.13911 -1.98898
Spine1  -7.50884 2.20387 -3.31475
HEad  -61.6224 -2.05175 10.3396
LeftShoulder1  -1.94126e-019 -3.10601e-018 -2.51263e-017
LeftArm  -9.43849 24.1468 -76.367
LeftForeArm  35.6716 -14.8791 -2.55191
LeftHand  -0.310754 -0.768122 5.97326
RightShoulder  -4.96962e-017 0 -2.36833e-017
RightArm  -72.3723 7.31035 2.65498
RightForeArm  169.144 44.3496 169.979
RightHand  -0.411959 -0.883921 -10.5715
LeftUpLeg  -6.33512 -3.35954 -1.82672
LeftLeg  1.69714 14.3568 -0.492533
LeftFoot  4.77801 -0.0527452 1.36655
LeftToes  -11.4806 1.48347e-006 1.01831e-007
